# xmcd
#
# Track frame offsets:
#	182
#	14622
#	32812
#	47980
#	62957
#	80142
#	96955
#	111282
#	127880
#	140855
#	158547
#
# Disc length: 2274 seconds
#
# Revision: 1
# Processed by: cddbd v1.5.2PL0 Copyright (c) Steve Scherf et al.
# Submitted via: audiograbber 1.83.01
#
DISCID=9d08e00b
DTITLE=Various Artist - The Massive Country Sampler
DYEAR=1994
DGENRE=Country
TTITLE0=Wylie and The Wild West Show - Black Boots and Blue Jeans
TTITLE1=Jann Browne - Hearts On A Blue Train
TTITLE2=Ian Stephen - Alcohol Of Fame
TTITLE3=Kate Campbell - Like A Buffalo
TTITLE4=George Hamilton V - Mr Lonely
TTITLE5=Cameron Daddo - Hearts On The Run
TTITLE6=Wylie and The Wild West Show - This Time
TTITLE7=Jann Browne - When The Darkest Hours Pass
TTITLE8=Ian Stephen - Groundbreaking
TTITLE9=Kate Campbell - Bury Me In Bluegrass
TTITLE10=George Hamilton V - Take My Advice
EXTD=
EXTT0=
EXTT1=
EXTT2=
EXTT3=
EXTT4=
EXTT5=
EXTT6=
EXTT7=
EXTT8=
EXTT9=
EXTT10=
PLAYORDER=
